< xmlns="http://www.w3.org/2000/svg" width="16" height="14" viewBox="0 0 16 14" fill="none">
<path d="M10.5804 8.07966C10.5804 9.50256 9.4229 10.6601 8 10.6601C6.5771 10.6601 5.42003 9.50256 5.42003 8.07966C5.42003 6.65676 6.5771 5.49925 8 5.49925C9.4229 5.49925 10.5804 6.6572 10.5804 8.07966ZM16 4.4156V11.7446C16 12.7217 15.2078 13.5138 14.2308 13.5138H1.76923C0.792171 13.5138 0 12.7217 0 11.7446V4.4156C0 3.43854 0.792171 2.64637 1.76923 2.64637H3.94538V2.03422C3.94538 1.17924 4.63803 0.486145 5.49345 0.486145H10.5066C11.362 0.486145 12.0546 1.17924 12.0546 2.03422V2.64593H14.2308C15.2078 2.64637 16 3.43854 16 4.4156ZM11.9073 8.07966C11.9073 5.92519 10.1545 4.17233 8 4.17233C5.84597 4.17233 4.09311 5.92519 4.09311 8.07966C4.09311 10.2341 5.84597 11.987 8 11.987C10.1545 11.987 11.9073 10.2341 11.9073 8.07966Z" fill="#BEA69E"/>
<svg xmlns="http://www.w3.org/2000/svg" width="16" height="16" viewBox="0 0 16 16" fill="none">
<path d="M10.5804 9.07966C10.5804 10.5026 9.4229 11.6601 8 11.6601C6.5771 11.6601 5.42003 10.5026 5.42003 9.07966C5.42003 7.65676 6.5771 6.49925 8 6.49925C9.4229 6.49925 10.5804 7.6572 10.5804 9.07966ZM16 5.4156V12.7446C16 13.7217 15.2078 14.5138 14.2308 14.5138H1.76923C0.792171 14.5138 0 13.7217 0 12.7446V5.4156C0 4.43854 0.792171 3.64637 1.76923 3.64637H3.94538V3.03422C3.94538 2.17924 4.63803 1.48615 5.49345 1.48615H10.5066C11.362 1.48615 12.0546 2.17924 12.0546 3.03422V3.64593H14.2308C15.2078 3.64637 16 4.43854 16 5.4156ZM11.9073 9.07966C11.9073 6.92519 10.1545 5.17233 8 5.17233C5.84597 5.17233 4.09311 6.92519 4.09311 9.07966C4.09311 11.2341 5.84597 12.987 8 12.987C10.1545 12.987 11.9073 11.2341 11.9073 9.07966Z" fill="#BEA69E"/>
</svg>